<?xml version="1.0" encoding="UTF-8"?> <svg xmlns="http://www.w3.org/2000/svg" xmlns:xlink="http://www.w3.org/1999/xlink" version="1.1" id="Layer_1" x="0px" y="0px" width="676.9px" height="275.8px" viewBox="0 0 676.9 275.8" style="enable-background:new 0 0 676.9 275.8;" xml:space="preserve"> <style type="text/css"> .st0{fill:#FFE700;} .st1{fill:#D0043C;} </style> <g> <path class="st0" d="M89.8,132c0,18.5,4.3,24.7,17.1,24.7c14,0,23.4-9.7,26.9-23.4h4.5c-2.7,16.9-16,27.3-32.5,27.3 c-23.8,0-39.7-18.9-38.8-42.3c0.4-9.5,5.6-22.6,13.1-29c8-7,16.8-9.9,27.5-9.9c11.7,0,29,5.3,29,19.9c0,5.3-4.1,11.3-9.7,11.3 c-6,0-12.1-2.5-12.1-9.9c0-5.8,6-7,6-10.5c0-5.5-10.5-6.8-13.6-6.8c-18.9,0-17.3,19.3-17.3,33.1V132z"></path> <path class="st1" d="M202.6,90.4c0-5.1-9.5-7-12.9-7c-7.4,0-16.6,3.7-13.6,7.4c1.2,1.6,2.7,5.6,2.7,9.3c0,5.1-4.9,8.6-9.3,8.6 c-5.5,0-10.1-2.9-10.1-9.2c0-14.8,19.1-20.1,31-20.1c8.4,0,17.3,1.4,24.9,5.3c5.5,2.7,7.2,5.8,7.2,11.9v51.8c0,2.5,2.3,3.7,4.7,3.7 c2.3,0,5.3-2.9,6.8-4.5l2.3,2.7c-5.1,6.2-10.3,10.3-18.5,10.3c-8.6,0-14-5.3-15.2-13.8c-7,8.6-17.5,13.8-28.4,13.8 c-11.7,0-20.3-6.4-20.3-18.9c0-23.2,31.2-28,48.7-27.1V90.4z M180.2,61.9h-9.5l24.7-25.7c3.3-3.3,7.8-8.6,12.1-8.6 c3.9,0,7.8,3.7,7.8,7.6c0,2.3-3.5,5.6-5.8,7.2L180.2,61.9z M202.6,118.8c-12.1,0-28.2,1.6-28.2,17.3c0,8.6,3.5,15,12.7,15 c6.8,0,11.9-5.3,14.2-11.5c1.2-2.9,1.4-6.4,1.4-10.1V118.8z"></path> <path class="st1" d="M277.2,98.5h0.4c4.9-11.7,13.8-19.1,27.1-19.1c10.7,0,18.9,5.8,22.4,16.2c5.6-9.5,14-16.2,25.3-16.2 c25.5,0,23.4,15.8,23.4,35.8v37.6h12.5v4.9h-43.4v-4.9h10.3v-52c0-5.5,1-14.4-8.2-14.4c-14.6,0-20.5,16.9-20.5,28.8v37.6h10.7v4.9 h-41.5v-4.9h10.1v-46.6c0-9,2.3-19.9-9.3-19.9c-9.5,0-19.3,14.8-19.3,29.2v37.2h10.7v4.9h-44v-4.9h12.7V85.5h-13.4v-4.9 c9.9,0.4,21.8-0.4,34.1-0.8V98.5z"></path> <path class="st1" d="M448,90.4c0-5.1-9.5-7-12.9-7c-7.4,0-16.6,3.7-13.6,7.4c1.2,1.6,2.7,5.6,2.7,9.3c0,5.1-4.9,8.6-9.4,8.6 c-5.5,0-10.1-2.9-10.1-9.2c0-14.8,19.1-20.1,31-20.1c8.4,0,17.3,1.4,24.9,5.3c5.5,2.7,7.2,5.8,7.2,11.9v51.8c0,2.5,2.3,3.7,4.7,3.7 c2.3,0,5.3-2.9,6.8-4.5l2.3,2.7c-5.1,6.2-10.3,10.3-18.5,10.3c-8.6,0-14-5.3-15.2-13.8c-7,8.6-17.5,13.8-28.4,13.8 c-11.7,0-20.3-6.4-20.3-18.9c0-23.2,31.2-28,48.7-27.1V90.4z M448,118.8c-12.1,0-28.2,1.6-28.2,17.3c0,8.6,3.5,15,12.7,15 c6.8,0,11.9-5.3,14.2-11.5c1.2-2.9,1.4-6.4,1.4-10.1V118.8z"></path> <path class="st1" d="M525,101.5c6.2-10.7,13-22,27.3-22c7.6,0,15.6,3.9,15.6,12.7c0,7.6-5.3,10.9-12.3,10.9c-4.7,0-9.4-4.1-9.4-9 c0-0.8,0.2-1.9,0.4-2.9c0.6-3.1,0.8-4.3-1.4-4.3c-3.7,0-5.6,1.9-8.2,4.5c-7.4,7.4-12.1,17.9-12.1,43.4v18.1h17.5v4.9h-50.1v-4.9 h11.5V85.5h-12.9v-4.9c10.1,0.4,22-0.4,33.9-0.8V101.5z"></path> <path class="st1" d="M628.4,90.4c0-5.1-9.5-7-12.9-7c-7.4,0-16.6,3.7-13.6,7.4c1.2,1.6,2.7,5.6,2.7,9.3c0,5.1-4.9,8.6-9.3,8.6 c-5.5,0-10.1-2.9-10.1-9.2c0-14.8,19.1-20.1,31-20.1c8.4,0,17.3,1.4,24.9,5.3c5.5,2.7,7.2,5.8,7.2,11.9v51.8c0,2.5,2.3,3.7,4.7,3.7 c2.3,0,5.3-2.9,6.8-4.5l2.3,2.7c-5.1,6.2-10.3,10.3-18.5,10.3c-8.6,0-14-5.3-15.2-13.8c-7,8.6-17.5,13.8-28.4,13.8 c-11.7,0-20.3-6.4-20.3-18.9c0-23.2,31.2-28,48.7-27.1V90.4z M628.4,118.8c-12.1,0-28.2,1.6-28.2,17.3c0,8.6,3.5,15,12.7,15 c6.8,0,11.9-5.3,14.2-11.5c1.2-2.9,1.4-6.4,1.4-10.1V118.8z"></path> <path class="st1" d="M136.6,167.8c-10.1,7.5-22.7,11.9-36.2,11.9c-33.7,0-61-27.3-61-61c0-33.7,27.3-61,61-61 c13.6,0,26.1,4.4,36.2,11.9V41.1c-11-5.1-23.3-8-36.2-8c-47.3,0-85.6,38.3-85.6,85.6c0,47.3,38.3,85.6,85.6,85.6 c13,0,25.2-2.9,36.2-8V167.8z"></path> <g> <g> <path d="M256.5,248.2h5.9V206h-2.6c-8.2,0-10.3,5.7-11.2,12.7h-1.1v-13.8h39.8v13.8H286c-0.9-6.9-3-12.7-11.2-12.7h-2.6v42.2h5.9 v1.1h-21.6V248.2z"></path> <path d="M300.1,220.8c8.3,0,15,6,15,14.7c0,8.7-6.7,14.6-15,14.6c-8.3,0-15-6-15-14.6C285.1,226.8,291.8,220.8,300.1,220.8z M294.9,242.3c0,4.7,2,6.7,5.2,6.7c3.2,0,5.2-2,5.2-6.7v-13.6c0-4.7-2-6.7-5.2-6.7c-3.2,0-5.2,2-5.2,6.7V242.3z"></path> <path d="M319.5,248.2h4.4V206h-4.4v-1.1h4c4.5,0,8,0,9.1-1.9v45.2h4.4v1.1h-17.4V248.2z"></path> <path d="M350.7,234.1v5.3c0,4.3,0.6,9.2,6.5,9.2c4.9,0,8.6-3.7,10-9.5h1.1c-1.4,6.2-5.2,11-13,11c-8.1,0-14.1-6.1-14.1-14.3 c0-8.5,6.4-15,13.9-15c6.6-0.1,12.9,6.4,13,13.3H350.7z M358.7,232.9v-5.4c0-3.5-0.9-5.6-4-5.6c-2.1,0-4,1.3-4,5.6v5.4H358.7z"></path> <path d="M389,204.9h4.9c4.5,0,8,0,9.1-2v45.3h4.4v1.1H403c-2.3,0-6.5,0-8.7,0.8v-4.6h-0.1c-1.5,2.8-3.8,4.6-8,4.6 c-6.3,0-13.3-5.4-13.3-14.1c0-8.1,5-15.2,13.5-15.2c4,0,6.4,1.8,7.8,4.9h0.1V206H389V204.9z M394.3,230c0-3.5-2.5-7.6-6.8-7.6 c-4,0-5.1,3.5-5.1,7.8v9.1c0,6.4,1.6,9.3,5.4,9.3c4.2,0,6.6-3.9,6.6-7.6V230z"></path> <path d="M426.5,220.8c8.3,0,15,6,15,14.7c0,8.7-6.7,14.6-15,14.6c-8.3,0-15-6-15-14.6C411.4,226.8,418.1,220.8,426.5,220.8z M421.3,242.3c0,4.7,2,6.7,5.2,6.7c3.2,0,5.2-2,5.2-6.7v-13.6c0-4.7-2-6.7-5.2-6.7c-3.2,0-5.2,2-5.2,6.7V242.3z"></path> </g> </g> </g> </svg> 